<?xml version="1.0" encoding="UTF-8"?>
<svg xmlns="http://www.w3.org/2000/svg" viewBox="0 0 1024 1024" width="1024" height="1024" role="img" aria-labelledby="title desc">
  <title id="title">AllTheThings macOS app icon</title>
  <desc id="desc">A dark macOS-style rounded square icon with a neon magnifying glass searching across a grid of file folders and fast horizontal data lines.</desc>
  <defs>
    <linearGradient id="bgGrad" x1="145" y1="94" x2="877" y2="938" gradientUnits="userSpaceOnUse">
      <stop offset="0" stop-color="#162233"/>
      <stop offset="0.48" stop-color="#08111D"/>
      <stop offset="1" stop-color="#050913"/>
    </linearGradient>
    <radialGradient id="bgBloom" cx="50%" cy="38%" r="64%">
      <stop offset="0" stop-color="#1D3148" stop-opacity="0.52"/>
      <stop offset="0.44" stop-color="#0C1827" stop-opacity="0.18"/>
      <stop offset="1" stop-color="#02050B" stop-opacity="0.72"/>
    </radialGradient>
    <linearGradient id="edgeGrad" x1="120" y1="90" x2="928" y2="1012" gradientUnits="userSpaceOnUse">
      <stop offset="0" stop-color="#6C7A8D" stop-opacity="0.48"/>
      <stop offset="0.5" stop-color="#243042" stop-opacity="0.25"/>
      <stop offset="1" stop-color="#000000" stop-opacity="0.5"/>
    </linearGradient>

    <linearGradient id="lensGrad" x1="280" y1="260" x2="740" y2="760" gradientUnits="userSpaceOnUse">
      <stop offset="0" stop-color="#35FFF3"/>
      <stop offset="0.25" stop-color="#24D9FF"/>
      <stop offset="0.56" stop-color="#246BFF"/>
      <stop offset="0.82" stop-color="#644DFF"/>
      <stop offset="1" stop-color="#8B2DFF"/>
    </linearGradient>
    <linearGradient id="lensHighlight" x1="320" y1="264" x2="554" y2="362" gradientUnits="userSpaceOnUse">
      <stop offset="0" stop-color="#FFFFFF" stop-opacity="0.68"/>
      <stop offset="1" stop-color="#FFFFFF" stop-opacity="0"/>
    </linearGradient>
    <radialGradient id="lensFill" cx="49%" cy="42%" r="70%">
      <stop offset="0" stop-color="#15253A" stop-opacity="0.95"/>
      <stop offset="0.48" stop-color="#08111D" stop-opacity="0.98"/>
      <stop offset="1" stop-color="#02050A"/>
    </radialGradient>
    <linearGradient id="handleGrad" x1="666" y1="650" x2="846" y2="858" gradientUnits="userSpaceOnUse">
      <stop offset="0" stop-color="#28CFFF"/>
      <stop offset="0.45" stop-color="#4057FF"/>
      <stop offset="1" stop-color="#8A20FF"/>
    </linearGradient>

    <linearGradient id="folderCyan" x1="0" y1="0" x2="0" y2="1">
      <stop offset="0" stop-color="#39FFF0"/>
      <stop offset="0.55" stop-color="#22BAFF"/>
      <stop offset="1" stop-color="#2360E8"/>
    </linearGradient>
    <linearGradient id="folderBlue" x1="0" y1="0" x2="0" y2="1">
      <stop offset="0" stop-color="#4AB8FF"/>
      <stop offset="0.6" stop-color="#2B73DC"/>
      <stop offset="1" stop-color="#2447B4"/>
    </linearGradient>
    <linearGradient id="folderViolet" x1="0" y1="0" x2="1" y2="1">
      <stop offset="0" stop-color="#7192FF"/>
      <stop offset="0.55" stop-color="#485CFF"/>
      <stop offset="1" stop-color="#7431E8"/>
    </linearGradient>
    <linearGradient id="folderCyanPurple" x1="0" y1="0" x2="1" y2="1">
      <stop offset="0" stop-color="#34F7ED"/>
      <stop offset="0.5" stop-color="#25A5FF"/>
      <stop offset="1" stop-color="#5A45F5"/>
    </linearGradient>

    <linearGradient id="cyanLine" x1="0" y1="0" x2="1" y2="0">
      <stop offset="0" stop-color="#20F7F1" stop-opacity="0.2"/>
      <stop offset="0.5" stop-color="#20D7FF"/>
      <stop offset="1" stop-color="#1373E6" stop-opacity="0.7"/>
    </linearGradient>
    <linearGradient id="blueLine" x1="0" y1="0" x2="1" y2="0">
      <stop offset="0" stop-color="#2396FF" stop-opacity="0.16"/>
      <stop offset="0.55" stop-color="#1B8EFF"/>
      <stop offset="1" stop-color="#3D55FF" stop-opacity="0.65"/>
    </linearGradient>
    <linearGradient id="violetLine" x1="0" y1="0" x2="1" y2="0">
      <stop offset="0" stop-color="#2D56FF" stop-opacity="0.35"/>
      <stop offset="0.5" stop-color="#635CFF"/>
      <stop offset="1" stop-color="#932DFF" stop-opacity="0.78"/>
    </linearGradient>

    <filter id="appShadow" x="-12%" y="-12%" width="124%" height="128%">
      <feDropShadow dx="0" dy="24" stdDeviation="26" flood-color="#000000" flood-opacity="0.35"/>
      <feDropShadow dx="0" dy="3" stdDeviation="4" flood-color="#000000" flood-opacity="0.45"/>
    </filter>
    <filter id="softGlow" x="-30%" y="-30%" width="160%" height="160%">
      <feGaussianBlur in="SourceGraphic" stdDeviation="9" result="blur"/>
      <feColorMatrix in="blur" type="matrix" values="0 0 0 0 0.10  0 0 0 0 0.70  0 0 0 0 1.00  0 0 0 .58 0" result="glow"/>
      <feMerge>
        <feMergeNode in="glow"/>
        <feMergeNode in="SourceGraphic"/>
      </feMerge>
    </filter>
    <filter id="handleShadow" x="-40%" y="-40%" width="180%" height="180%">
      <feDropShadow dx="0" dy="16" stdDeviation="13" flood-color="#000000" flood-opacity="0.45"/>
      <feDropShadow dx="-4" dy="-4" stdDeviation="7" flood-color="#38F4FF" flood-opacity="0.25"/>
    </filter>
    <filter id="tileShadow" x="-35%" y="-35%" width="170%" height="170%">
      <feDropShadow dx="0" dy="4" stdDeviation="4" flood-color="#000000" flood-opacity="0.42"/>
      <feDropShadow dx="0" dy="-1" stdDeviation="2" flood-color="#58FFFF" flood-opacity="0.16"/>
    </filter>
    <filter id="barGlow" x="-40%" y="-200%" width="180%" height="500%">
      <feGaussianBlur stdDeviation="4" result="blur"/>
      <feMerge>
        <feMergeNode in="blur"/>
        <feMergeNode in="SourceGraphic"/>
      </feMerge>
    </filter>

    <clipPath id="iconClip">
      <path d="M 512 48 C 668 48 748 48 822 94 C 869 123 901 155 930 202 C 976 276 976 356 976 512 C 976 668 976 748 930 822 C 901 869 869 901 822 930 C 748 976 668 976 512 976 C 356 976 276 976 202 930 C 155 901 123 869 94 822 C 48 748 48 668 48 512 C 48 356 48 276 94 202 C 123 155 155 123 202 94 C 276 48 356 48 512 48 Z"/>
    </clipPath>
    <clipPath id="lensClip">
      <circle cx="510" cy="488" r="190"/>
    </clipPath>
  </defs>

  <g filter="url(#appShadow)">
    <g clip-path="url(#iconClip)">
      <path d="M 512 48 C 668 48 748 48 822 94 C 869 123 901 155 930 202 C 976 276 976 356 976 512 C 976 668 976 748 930 822 C 901 869 869 901 822 930 C 748 976 668 976 512 976 C 356 976 276 976 202 930 C 155 901 123 869 94 822 C 48 748 48 668 48 512 C 48 356 48 276 94 202 C 123 155 155 123 202 94 C 276 48 356 48 512 48 Z" fill="url(#bgGrad)"/>
      <rect x="48" y="48" width="928" height="928" fill="url(#bgBloom)"/>
      <ellipse cx="512" cy="320" rx="345" ry="236" fill="#2A526C" opacity="0.10"/>
      <ellipse cx="512" cy="1004" rx="390" ry="90" fill="#000000" opacity="0.24"/>

      <g filter="url(#barGlow)">
        <rect x="244" y="332" width="58" height="14" rx="7" fill="url(#cyanLine)" opacity="0.95"/><rect x="316" y="332" width="32" height="14" rx="7" fill="url(#cyanLine)" opacity="0.26"/><rect x="206" y="380" width="70" height="14" rx="7" fill="url(#cyanLine)" opacity="0.55"/><rect x="292" y="380" width="24" height="14" rx="7" fill="url(#cyanLine)" opacity="0.70"/><rect x="248" y="428" width="46" height="14" rx="7" fill="url(#cyanLine)" opacity="0.90"/><rect x="188" y="478" width="54" height="14" rx="7" fill="url(#cyanLine)" opacity="0.55"/><rect x="262" y="478" width="32" height="14" rx="7" fill="url(#cyanLine)" opacity="0.85"/><rect x="226" y="526" width="62" height="14" rx="7" fill="url(#cyanLine)" opacity="0.62"/><rect x="204" y="582" width="78" height="14" rx="7" fill="url(#blueLine)" opacity="0.45"/><rect x="304" y="582" width="24" height="14" rx="7" fill="url(#blueLine)" opacity="0.22"/><rect x="230" y="632" width="68" height="14" rx="7" fill="url(#blueLine)" opacity="0.72"/><rect x="206" y="680" width="80" height="14" rx="7" fill="url(#blueLine)" opacity="0.43"/><rect x="302" y="680" width="42" height="14" rx="7" fill="url(#blueLine)" opacity="0.82"/><rect x="726" y="332" width="32" height="14" rx="7" fill="url(#blueLine)" opacity="0.55"/><rect x="772" y="332" width="62" height="14" rx="7" fill="url(#violetLine)" opacity="0.98"/><rect x="758" y="380" width="30" height="14" rx="7" fill="url(#blueLine)" opacity="0.93"/><rect x="810" y="380" width="74" height="14" rx="7" fill="url(#violetLine)" opacity="0.25"/><rect x="776" y="428" width="60" height="14" rx="7" fill="url(#violetLine)" opacity="0.90"/><rect x="774" y="478" width="42" height="14" rx="7" fill="url(#blueLine)" opacity="0.90"/><rect x="842" y="478" width="46" height="14" rx="7" fill="url(#violetLine)" opacity="0.75"/><rect x="802" y="526" width="64" height="14" rx="7" fill="url(#violetLine)" opacity="0.65"/><rect x="792" y="582" width="42" height="14" rx="7" fill="url(#blueLine)" opacity="0.46"/><rect x="852" y="582" width="58" height="14" rx="7" fill="url(#violetLine)" opacity="0.75"/><rect x="786" y="632" width="62" height="14" rx="7" fill="url(#violetLine)" opacity="0.90"/><rect x="756" y="680" width="54" height="14" rx="7" fill="url(#blueLine)" opacity="0.62"/><rect x="828" y="680" width="82" height="14" rx="7" fill="url(#violetLine)" opacity="0.32"/>
        <rect x="374" y="372" width="45" height="16" rx="8" fill="url(#blueLine)" opacity="0.14"/>
        <rect x="632" y="372" width="45" height="16" rx="8" fill="url(#violetLine)" opacity="0.14"/>
        <rect x="362" y="470" width="34" height="16" rx="8" fill="url(#cyanLine)" opacity="0.18"/>
        <rect x="620" y="470" width="34" height="16" rx="8" fill="url(#violetLine)" opacity="0.18"/>
      </g>

      <!-- Magnifying-glass handle, below the rim so the joint tucks underneath. -->
      <line x1="675" y1="650" x2="820" y2="795" stroke="url(#handleGrad)" stroke-width="80" stroke-linecap="round" filter="url(#handleShadow)"/>
      <line x1="673" y1="648" x2="820" y2="795" stroke="#FFFFFF" stroke-opacity="0.20" stroke-width="13" stroke-linecap="round"/>

      <!-- Lens interior. -->
      <circle cx="510" cy="488" r="216" fill="url(#lensFill)" opacity="0.98"/>
      <g clip-path="url(#lensClip)">
        <circle cx="510" cy="488" r="190" fill="#050A12" opacity="0.46"/>
        <g opacity="0.92" filter="url(#tileShadow)">
  <path d="M 388.7 328.1 Q 382.0 328.1 382.0 334.8 V 353.3 Q 382.0 360.0 388.7 360.0 H 431.3 Q 438.0 360.0 438.0 353.3 V 334.8 Q 438.0 328.1 431.3 328.1 H 418.1 Q 413.1 328.1 409.1 324.1 L 403.1 322.0 Q 399.1 318.0 393.1 318.0 H 388.7 Q 382.0 318.0 382.0 324.7 V 328.1 Z" fill="url(#folderBlue)" stroke="rgba(255,255,255,0.28)" stroke-width="1.2"/>
  <path d="M 390.0 332.3 H 430.0" stroke="rgba(255,255,255,0.20)" stroke-width="1" stroke-linecap="round"/>
</g><g opacity="1.00" filter="url(#tileShadow)">
  <path d="M 464.0 313.0 Q 456.0 313.0 456.0 321.0 V 346.0 Q 456.0 354.0 464.0 354.0 H 518.0 Q 526.0 354.0 526.0 346.0 V 321.0 Q 526.0 313.0 518.0 313.0 H 498.1 Q 493.1 313.0 489.1 309.0 L 483.1 304.0 Q 479.1 300.0 473.1 300.0 H 464.0 Q 456.0 300.0 456.0 308.0 V 313.0 Z" fill="url(#folderCyan)" stroke="rgba(255,255,255,0.28)" stroke-width="1.2"/>
  <path d="M 464.0 318.4 H 518.0" stroke="rgba(255,255,255,0.20)" stroke-width="1" stroke-linecap="round"/>
</g><g opacity="0.93" filter="url(#tileShadow)">
  <path d="M 557.0 328.1 Q 550.0 328.1 550.0 335.0 V 353.0 Q 550.0 360.0 557.0 360.0 H 601.0 Q 608.0 360.0 608.0 353.0 V 335.0 Q 608.0 328.1 601.0 328.1 H 586.9 Q 581.9 328.1 577.9 324.1 L 571.9 322.0 Q 567.9 318.0 561.9 318.0 H 557.0 Q 550.0 318.0 550.0 325.0 V 328.1 Z" fill="url(#folderViolet)" stroke="rgba(255,255,255,0.28)" stroke-width="1.2"/>
  <path d="M 558.0 332.3 H 600.0" stroke="rgba(255,255,255,0.20)" stroke-width="1" stroke-linecap="round"/>
</g><g opacity="0.90" filter="url(#tileShadow)">
  <path d="M 338.5 405.1 Q 332.0 405.1 332.0 411.6 V 430.5 Q 332.0 437.0 338.5 437.0 H 379.5 Q 386.0 437.0 386.0 430.5 V 411.6 Q 386.0 405.1 379.5 405.1 H 367.2 Q 362.2 405.1 358.2 401.1 L 352.2 399.0 Q 348.2 395.0 342.2 395.0 H 338.5 Q 332.0 395.0 332.0 401.5 V 405.1 Z" fill="url(#folderBlue)" stroke="rgba(255,255,255,0.28)" stroke-width="1.2"/>
  <path d="M 340.0 409.3 H 378.0" stroke="rgba(255,255,255,0.20)" stroke-width="1" stroke-linecap="round"/>
</g><g opacity="1.00" filter="url(#tileShadow)">
  <path d="M 425.7 396.0 Q 418.0 396.0 418.0 403.7 V 426.3 Q 418.0 434.0 425.7 434.0 H 474.3 Q 482.0 434.0 482.0 426.3 V 403.7 Q 482.0 396.0 474.3 396.0 H 457.5 Q 452.5 396.0 448.5 392.0 L 442.5 388.0 Q 438.5 384.0 432.5 384.0 H 425.7 Q 418.0 384.0 418.0 391.7 V 396.0 Z" fill="url(#folderCyan)" stroke="rgba(255,255,255,0.28)" stroke-width="1.2"/>
  <path d="M 426.0 401.0 H 474.0" stroke="rgba(255,255,255,0.20)" stroke-width="1" stroke-linecap="round"/>
</g><g opacity="1.00" filter="url(#tileShadow)">
  <path d="M 518.0 395.0 Q 510.0 395.0 510.0 403.0 V 428.0 Q 510.0 436.0 518.0 436.0 H 572.0 Q 580.0 436.0 580.0 428.0 V 403.0 Q 580.0 395.0 572.0 395.0 H 552.1 Q 547.1 395.0 543.1 391.0 L 537.1 386.0 Q 533.1 382.0 527.1 382.0 H 518.0 Q 510.0 382.0 510.0 390.0 V 395.0 Z" fill="url(#folderCyan)" stroke="rgba(255,255,255,0.28)" stroke-width="1.2"/>
  <path d="M 518.0 400.4 H 572.0" stroke="rgba(255,255,255,0.20)" stroke-width="1" stroke-linecap="round"/>
</g><g opacity="0.98" filter="url(#tileShadow)">
  <path d="M 613.7 397.0 Q 606.0 397.0 606.0 404.7 V 427.3 Q 606.0 435.0 613.7 435.0 H 662.3 Q 670.0 435.0 670.0 427.3 V 404.7 Q 670.0 397.0 662.3 397.0 H 645.5 Q 640.5 397.0 636.5 393.0 L 630.5 389.0 Q 626.5 385.0 620.5 385.0 H 613.7 Q 606.0 385.0 606.0 392.7 V 397.0 Z" fill="url(#folderCyanPurple)" stroke="rgba(255,255,255,0.28)" stroke-width="1.2"/>
  <path d="M 614.0 402.0 H 662.0" stroke="rgba(255,255,255,0.20)" stroke-width="1" stroke-linecap="round"/>
</g><g opacity="0.92" filter="url(#tileShadow)">
  <path d="M 698.0 406.1 Q 692.0 406.1 692.0 412.1 V 432.0 Q 692.0 438.0 698.0 438.0 H 736.0 Q 742.0 438.0 742.0 432.0 V 412.1 Q 742.0 406.1 736.0 406.1 H 725.5 Q 720.5 406.1 716.5 402.1 L 710.5 400.0 Q 706.5 396.0 700.5 396.0 H 698.0 Q 692.0 396.0 692.0 402.0 V 406.1 Z" fill="url(#folderViolet)" stroke="rgba(255,255,255,0.28)" stroke-width="1.2"/>
  <path d="M 700.0 410.3 H 734.0" stroke="rgba(255,255,255,0.20)" stroke-width="1" stroke-linecap="round"/>
</g><g opacity="0.94" filter="url(#tileShadow)">
  <path d="M 321.4 481.5 Q 314.0 481.5 314.0 489.0 V 510.6 Q 314.0 518.0 321.4 518.0 H 368.6 Q 376.0 518.0 376.0 510.6 V 489.0 Q 376.0 481.5 368.6 481.5 H 352.7 Q 347.7 481.5 343.7 477.5 L 337.7 474.0 Q 333.7 470.0 327.7 470.0 H 321.4 Q 314.0 470.0 314.0 477.4 V 481.5 Z" fill="url(#folderBlue)" stroke="rgba(255,255,255,0.28)" stroke-width="1.2"/>
  <path d="M 322.0 486.3 H 368.0" stroke="rgba(255,255,255,0.20)" stroke-width="1" stroke-linecap="round"/>
</g><g opacity="1.00" filter="url(#tileShadow)">
  <path d="M 425.4 481.5 Q 418.0 481.5 418.0 489.0 V 510.6 Q 418.0 518.0 425.4 518.0 H 472.6 Q 480.0 518.0 480.0 510.6 V 489.0 Q 480.0 481.5 472.6 481.5 H 456.7 Q 451.7 481.5 447.7 477.5 L 441.7 474.0 Q 437.7 470.0 431.7 470.0 H 425.4 Q 418.0 470.0 418.0 477.4 V 481.5 Z" fill="url(#folderCyan)" stroke="rgba(255,255,255,0.28)" stroke-width="1.2"/>
  <path d="M 426.0 486.3 H 472.0" stroke="rgba(255,255,255,0.20)" stroke-width="1" stroke-linecap="round"/>
</g><g opacity="1.00" filter="url(#tileShadow)">
  <path d="M 518.0 483.0 Q 510.0 483.0 510.0 491.0 V 516.0 Q 510.0 524.0 518.0 524.0 H 572.0 Q 580.0 524.0 580.0 516.0 V 491.0 Q 580.0 483.0 572.0 483.0 H 552.1 Q 547.1 483.0 543.1 479.0 L 537.1 474.0 Q 533.1 470.0 527.1 470.0 H 518.0 Q 510.0 470.0 510.0 478.0 V 483.0 Z" fill="url(#folderCyan)" stroke="rgba(255,255,255,0.28)" stroke-width="1.2"/>
  <path d="M 518.0 488.4 H 572.0" stroke="rgba(255,255,255,0.20)" stroke-width="1" stroke-linecap="round"/>
</g><g opacity="0.98" filter="url(#tileShadow)">
  <path d="M 613.4 481.5 Q 606.0 481.5 606.0 489.0 V 510.6 Q 606.0 518.0 613.4 518.0 H 660.6 Q 668.0 518.0 668.0 510.6 V 489.0 Q 668.0 481.5 660.6 481.5 H 644.7 Q 639.7 481.5 635.7 477.5 L 629.7 474.0 Q 625.7 470.0 619.7 470.0 H 613.4 Q 606.0 470.0 606.0 477.4 V 481.5 Z" fill="url(#folderCyanPurple)" stroke="rgba(255,255,255,0.28)" stroke-width="1.2"/>
  <path d="M 614.0 486.3 H 660.0" stroke="rgba(255,255,255,0.20)" stroke-width="1" stroke-linecap="round"/>
</g><g opacity="0.95" filter="url(#tileShadow)">
  <path d="M 703.0 481.5 Q 696.0 481.5 696.0 488.5 V 511.0 Q 696.0 518.0 703.0 518.0 H 747.0 Q 754.0 518.0 754.0 511.0 V 488.5 Q 754.0 481.5 747.0 481.5 H 732.9 Q 727.9 481.5 723.9 477.5 L 717.9 474.0 Q 713.9 470.0 707.9 470.0 H 703.0 Q 696.0 470.0 696.0 477.0 V 481.5 Z" fill="url(#folderViolet)" stroke="rgba(255,255,255,0.28)" stroke-width="1.2"/>
  <path d="M 704.0 486.3 H 746.0" stroke="rgba(255,255,255,0.20)" stroke-width="1" stroke-linecap="round"/>
</g><g opacity="0.92" filter="url(#tileShadow)">
  <path d="M 337.0 563.0 Q 330.0 563.0 330.0 570.0 V 591.0 Q 330.0 598.0 337.0 598.0 H 381.0 Q 388.0 598.0 388.0 591.0 V 570.0 Q 388.0 563.0 381.0 563.0 H 366.9 Q 361.9 563.0 357.9 559.0 L 351.9 556.0 Q 347.9 552.0 341.9 552.0 H 337.0 Q 330.0 552.0 330.0 559.0 V 563.0 Z" fill="url(#folderBlue)" stroke="rgba(255,255,255,0.28)" stroke-width="1.2"/>
  <path d="M 338.0 567.6 H 380.0" stroke="rgba(255,255,255,0.20)" stroke-width="1" stroke-linecap="round"/>
</g><g opacity="1.00" filter="url(#tileShadow)">
  <path d="M 425.4 557.0 Q 418.0 557.0 418.0 564.4 V 587.6 Q 418.0 595.0 425.4 595.0 H 472.6 Q 480.0 595.0 480.0 587.6 V 564.4 Q 480.0 557.0 472.6 557.0 H 456.7 Q 451.7 557.0 447.7 553.0 L 441.7 549.0 Q 437.7 545.0 431.7 545.0 H 425.4 Q 418.0 545.0 418.0 552.4 V 557.0 Z" fill="url(#folderCyan)" stroke="rgba(255,255,255,0.28)" stroke-width="1.2"/>
  <path d="M 426.0 562.0 H 472.0" stroke="rgba(255,255,255,0.20)" stroke-width="1" stroke-linecap="round"/>
</g><g opacity="1.00" filter="url(#tileShadow)">
  <path d="M 518.0 558.0 Q 510.0 558.0 510.0 566.0 V 591.0 Q 510.0 599.0 518.0 599.0 H 572.0 Q 580.0 599.0 580.0 591.0 V 566.0 Q 580.0 558.0 572.0 558.0 H 552.1 Q 547.1 558.0 543.1 554.0 L 537.1 549.0 Q 533.1 545.0 527.1 545.0 H 518.0 Q 510.0 545.0 510.0 553.0 V 558.0 Z" fill="url(#folderCyan)" stroke="rgba(255,255,255,0.28)" stroke-width="1.2"/>
  <path d="M 518.0 563.4 H 572.0" stroke="rgba(255,255,255,0.20)" stroke-width="1" stroke-linecap="round"/>
</g><g opacity="0.98" filter="url(#tileShadow)">
  <path d="M 613.4 557.0 Q 606.0 557.0 606.0 564.4 V 587.6 Q 606.0 595.0 613.4 595.0 H 660.6 Q 668.0 595.0 668.0 587.6 V 564.4 Q 668.0 557.0 660.6 557.0 H 644.7 Q 639.7 557.0 635.7 553.0 L 629.7 549.0 Q 625.7 545.0 619.7 545.0 H 613.4 Q 606.0 545.0 606.0 552.4 V 557.0 Z" fill="url(#folderCyanPurple)" stroke="rgba(255,255,255,0.28)" stroke-width="1.2"/>
  <path d="M 614.0 562.0 H 660.0" stroke="rgba(255,255,255,0.20)" stroke-width="1" stroke-linecap="round"/>
</g><g opacity="0.92" filter="url(#tileShadow)">
  <path d="M 702.7 563.0 Q 696.0 563.0 696.0 569.8 V 591.3 Q 696.0 598.0 702.7 598.0 H 745.3 Q 752.0 598.0 752.0 591.3 V 569.8 Q 752.0 563.0 745.3 563.0 H 732.1 Q 727.1 563.0 723.1 559.0 L 717.1 556.0 Q 713.1 552.0 707.1 552.0 H 702.7 Q 696.0 552.0 696.0 558.7 V 563.0 Z" fill="url(#folderViolet)" stroke="rgba(255,255,255,0.28)" stroke-width="1.2"/>
  <path d="M 704.0 567.6 H 744.0" stroke="rgba(255,255,255,0.20)" stroke-width="1" stroke-linecap="round"/>
</g><g opacity="0.88" filter="url(#tileShadow)">
  <path d="M 389.0 646.6 Q 382.0 646.6 382.0 653.5 V 673.0 Q 382.0 680.0 389.0 680.0 H 433.0 Q 440.0 680.0 440.0 673.0 V 653.5 Q 440.0 646.6 433.0 646.6 H 418.9 Q 413.9 646.6 409.9 642.6 L 403.9 640.0 Q 399.9 636.0 393.9 636.0 H 389.0 Q 382.0 636.0 382.0 643.0 V 646.6 Z" fill="url(#folderBlue)" stroke="rgba(255,255,255,0.28)" stroke-width="1.2"/>
  <path d="M 390.0 651.0 H 432.0" stroke="rgba(255,255,255,0.20)" stroke-width="1" stroke-linecap="round"/>
</g><g opacity="0.96" filter="url(#tileShadow)">
  <path d="M 518.0 639.0 Q 510.0 639.0 510.0 647.0 V 672.0 Q 510.0 680.0 518.0 680.0 H 572.0 Q 580.0 680.0 580.0 672.0 V 647.0 Q 580.0 639.0 572.0 639.0 H 552.1 Q 547.1 639.0 543.1 635.0 L 537.1 630.0 Q 533.1 626.0 527.1 626.0 H 518.0 Q 510.0 626.0 510.0 634.0 V 639.0 Z" fill="url(#folderCyanPurple)" stroke="rgba(255,255,255,0.28)" stroke-width="1.2"/>
  <path d="M 518.0 644.4 H 572.0" stroke="rgba(255,255,255,0.20)" stroke-width="1" stroke-linecap="round"/>
</g><g opacity="0.88" filter="url(#tileShadow)">
  <path d="M 611.0 646.6 Q 604.0 646.6 604.0 653.5 V 673.0 Q 604.0 680.0 611.0 680.0 H 655.0 Q 662.0 680.0 662.0 673.0 V 653.5 Q 662.0 646.6 655.0 646.6 H 640.9 Q 635.9 646.6 631.9 642.6 L 625.9 640.0 Q 621.9 636.0 615.9 636.0 H 611.0 Q 604.0 636.0 604.0 643.0 V 646.6 Z" fill="url(#folderViolet)" stroke="rgba(255,255,255,0.28)" stroke-width="1.2"/>
  <path d="M 612.0 651.0 H 654.0" stroke="rgba(255,255,255,0.20)" stroke-width="1" stroke-linecap="round"/>
</g>
        <circle cx="390" cy="344" r="118" fill="#46FFF1" opacity="0.08"/>
        <circle cx="672" cy="632" r="160" fill="#5E35FF" opacity="0.10"/>
      </g>

      <!-- Magnifying-glass rim. -->
      <circle cx="510" cy="488" r="236" fill="none" stroke="#000000" stroke-opacity="0.34" stroke-width="69"/>
      <circle cx="510" cy="488" r="236" fill="none" stroke="url(#lensGrad)" stroke-width="54" filter="url(#softGlow)"/>
      <circle cx="510" cy="488" r="205" fill="none" stroke="#B9FCFF" stroke-opacity="0.54" stroke-width="5"/>
      <path d="M 313 376 C 374 279 503 242 619 286" fill="none" stroke="url(#lensHighlight)" stroke-width="10" stroke-linecap="round" opacity="0.72"/>

      <!-- Subtle icon edge. -->
      <path d="M 512 48 C 668 48 748 48 822 94 C 869 123 901 155 930 202 C 976 276 976 356 976 512 C 976 668 976 748 930 822 C 901 869 869 901 822 930 C 748 976 668 976 512 976 C 356 976 276 976 202 930 C 155 901 123 869 94 822 C 48 748 48 668 48 512 C 48 356 48 276 94 202 C 123 155 155 123 202 94 C 276 48 356 48 512 48 Z" fill="none" stroke="url(#edgeGrad)" stroke-width="3"/>
      <path d="M 512 58 C 664 58 742 58 812 102 C 856 130 886 160 914 204" fill="none" stroke="#FFFFFF" stroke-opacity="0.10" stroke-width="4" stroke-linecap="round"/>
    </g>
  </g>
</svg>
